<svg width="155" height="50" viewBox="0 0 155 50" fill="none" xmlns="http://www.w3.org/2000/svg">
<g clip-path="url(#clip0_738_19270)">
<path d="M0 40.9L3.83106 22.7454H0.847339L2.02821 17.1022H5.00291L5.38151 15.3693C6.48124 10.3702 8.80692 7.83887 14.0262 7.83887C15.5586 7.83887 17.109 8.04754 17.8572 8.26529L16.6673 13.6182C16.2978 13.5456 15.802 13.5093 15.4144 13.5093C14.1343 13.5093 13.5755 14.335 13.314 15.6142L13.0076 17.1022H16.5231L15.3423 22.7454H11.8267L7.99564 40.9H0Z" fill="white"/>
<path d="M14.2695 40.8999L21.1474 8.13818H29.2061L22.3283 40.8999H14.2695Z" fill="white"/>
<path d="M80.1188 8.14746L74.7013 33.8869C74.0072 37.0805 73.5384 39.6118 73.3041 40.9092H65.5969C65.6419 40.4102 65.7591 39.267 65.8763 38.6138C64.389 40.4737 62.5951 41.4082 59.4762 41.4082C54.924 41.4082 52.4541 37.9878 52.4541 32.4171C52.4541 25.5218 56.3663 16.6123 64.3078 16.6123C67.1834 16.6123 69.1575 17.7464 69.7975 18.9803L72.0691 8.15653H80.1098L80.1188 8.14746ZM60.8283 32.1086C60.8283 34.5401 61.6847 35.7014 63.3613 35.7014C66.5344 35.7014 67.8595 30.3667 68.3282 27.536C68.8871 24.3514 68.7158 22.3554 66.1107 22.3554C62.532 22.3554 60.8283 28.9695 60.8283 32.0996V32.1086Z" fill="white"/>
<path d="M103.394 26.3835C103.394 32.1266 100.545 41.3989 89.6379 41.3989C82.2823 41.3989 79.4248 37.2164 79.4248 31.5822C79.4248 25.3855 83.0035 16.594 93.1084 16.594C100.518 16.594 103.394 21.1032 103.394 26.3744V26.3835ZM87.6909 32.2264C87.6909 34.6488 88.43 35.8192 90.2509 35.8192C93.8386 35.8192 95.2719 28.2797 95.2719 25.5851C95.2719 23.2897 94.5327 22.2191 92.6397 22.2191C89.1422 22.2191 87.6909 29.2142 87.6909 32.2264Z" fill="white"/>
<path d="M127.48 32.7707C126.209 37.3797 122.819 41.3717 115.365 41.3717C108.883 41.3717 105.891 37.7698 105.891 31.9814C105.891 25.4399 109.577 16.594 119.196 16.594C126.488 16.594 129.129 21.2937 128.652 25.8301H120.89C121.107 23.8159 120.899 22.0558 118.862 22.0558C115.401 22.0558 114.049 29.6588 114.049 32.6074C114.049 35.0934 114.923 35.9553 116.311 35.9553C118.258 35.9553 119.024 34.5944 119.728 32.7617H127.471L127.48 32.7707Z" fill="white"/>
<path d="M137.125 33.3153C137.197 35.2932 138.333 36.1732 139.911 36.1732C141.488 36.1732 142.326 35.6016 142.326 34.2679C142.326 33.0522 141.272 32.4534 138.892 31.528C134.123 29.7043 131.87 27.8172 131.87 24.2698C131.87 20.1416 134.845 16.6033 141.758 16.6033C148.672 16.6033 151.539 20.5499 151.404 24.1881H144.12C144.048 22.682 143.372 21.6296 141.569 21.6296C140.442 21.6296 139.496 22.0741 139.496 23.308C139.496 24.297 140.361 24.7053 142.903 25.7123C147.852 27.6539 150.259 29.5138 150.259 33.3335C150.259 37.1531 147.6 41.381 139.595 41.381C132.591 41.381 129.49 37.8517 129.625 33.3244H137.116L137.125 33.3153Z" fill="white"/>
<path d="M138.639 11.9852C122.585 22.1285 103.573 26.0207 84.8599 27.3C72.7087 28.3071 60.5575 27.6992 48.3973 27.7627L53.6796 17.1022H45.4676C43.8811 20.6406 42.2856 24.5872 40.9966 27.9079C40.2394 27.9351 39.4732 27.9623 38.716 27.9986C38.6619 25.0409 38.5447 21.3573 38.4275 17.1022H30.2336L31.4865 28.552C23.9957 29.5954 17.5866 32.6529 18.3708 41.8436C18.7765 46.38 22.1388 48.8025 26.0329 49.6462V49.6916C26.1862 49.7188 26.3935 49.746 26.6008 49.7642C27.953 50.0001 29.3502 50.0454 30.7113 49.9366C36.174 49.8095 38.2112 48.367 42.0603 40.5553L46.0085 32.5804C52.1021 32.3445 58.2228 32.3445 64.3255 32.0995C91.8189 31.2648 121.332 27.7536 143.75 10.2523C149.222 6.00623 155.099 0.0544954 155 5.87896e-05C154.901 -0.0543778 145.832 7.24012 138.639 11.9852ZM30.6122 43.5765C29.9722 43.6582 29.269 43.7308 28.5569 43.7308C28.1423 43.7126 27.6735 43.6763 27.2859 43.6128V43.64C26.2132 43.4949 25.2307 43.132 24.5816 42.3426C23.9777 41.6803 23.9867 39.5392 24.3112 38.2327C24.9512 35.3385 28.9716 34.4221 32.0544 33.8505L32.8567 41.2267C32.3249 42.4152 31.775 43.2318 30.6122 43.5765ZM38.8602 33.4967H38.707C38.707 33.3515 38.716 33.1882 38.725 33.0249C38.8332 33.0158 38.9413 33.0068 39.0495 32.9977C38.9864 33.1701 38.9233 33.3334 38.8692 33.4876L38.8602 33.4967Z" fill="#31A392"/>
<path d="M148.392 3.9195C150.862 2.17753 152.422 0.898273 153.125 0.299471C153.251 0.190598 153.152 6.98864e-05 152.989 0.0272882L132.59 4.10096C132.437 4.12818 132.419 4.355 132.572 4.40036L142.1 7.41252C142.1 7.41252 142.163 7.42159 142.199 7.41252C142.569 7.26735 145.147 6.19677 148.383 3.9195H148.392Z" fill="#31A392"/>
<path d="M148.943 12.7655C149.042 12.956 149.321 12.9379 149.402 12.7383L153.792 1.98706C153.792 1.98706 152.098 4.18267 150.439 5.97908C148.988 7.54866 147.618 8.98216 147.302 9.31785C147.257 9.36322 147.248 9.42673 147.275 9.49024C147.482 9.9348 148.474 11.8582 148.943 12.7655Z" fill="#31A392"/>
<path d="M41.5733 41.4533L53.6795 17.1021H45.4675C42.7993 23.0538 40.104 30.185 38.869 33.4965H38.7158C38.842 30.4118 38.6437 24.6597 38.4274 17.1021H30.2334L33.4695 49.4646L41.5914 41.4533H41.5733Z" fill="url(#paint0_linear_738_19270)"/>
</g>
<defs>
<linearGradient id="paint0_linear_738_19270" x1="46.8106" y1="38.0783" x2="43.946" y2="33.9039" gradientUnits="userSpaceOnUse">
<stop offset="0.35" stop-color="#31A392"/>
<stop offset="0.98" stop-color="white"/>
</linearGradient>
<clipPath id="clip0_738_19270">
<rect width="155" height="50" fill="white"/>
</clipPath>
</defs>
</svg>
