<svg xmlns="http://www.w3.org/2000/svg" viewBox="0 0 220 48" fill="none" role="img" aria-label="FlyDocs">
  <!-- Teal bird/wing icon -->
  <g>
    <!-- Wing shape -->
    <path d="M6 24 C6 14 14 8 22 8 C26 8 30 10 33 13 L44 24 L33 35 C30 38 26 40 22 40 C14 40 6 34 6 24Z" fill="#38b2ac"/>
    <path d="M22 8 C26 8 30 10 33 13 L44 24 L33 35 C30 38 26 40 22 40 L22 28 C26 28 30 26 30 24 C30 22 26 20 22 20Z" fill="#2c7a7b"/>
    <!-- Highlight dot -->
    <circle cx="16" cy="20" r="2.5" fill="#b2f5ea" opacity="0.7"/>
  </g>
  <!-- Black wordmark -->
  <text x="54" y="32" font-family="'Barlow Condensed', 'Arial Narrow', sans-serif" font-size="26" font-weight="700" fill="#1a202c" letter-spacing="0.5">FlyDocs</text>
</svg>
