<svg width="366" height="117" viewBox="0 0 366 117" fill="none" xmlns="http://www.w3.org/2000/svg">
<g clip-path="url(#clip0_1337_31267)">
<path d="M0 95.7061L9.04623 53.2243H2.00081L4.78918 40.0191H11.8133L12.7073 35.9641C15.3041 24.2662 20.7957 18.343 33.1199 18.343C36.7384 18.343 40.3994 18.8313 42.1661 19.3408L39.3564 31.8666C38.4837 31.6968 37.3131 31.6119 36.3978 31.6119C33.3753 31.6119 32.0556 33.5438 31.4383 36.5373L30.7146 40.0191H39.0159L36.2275 53.2243H27.9263L18.88 95.7061H0Z" fill="black"/>
<path d="M33.6946 95.706L49.9352 19.0435H68.9643L52.7236 95.706H33.6946Z" fill="black"/>
<path d="M189.183 19.0648L176.391 79.2951C174.752 86.7681 173.645 92.6914 173.092 95.7273H154.893C154.999 94.5596 155.276 91.8846 155.553 90.356C152.041 94.7082 147.805 96.8949 140.44 96.8949C129.691 96.8949 123.859 88.8911 123.859 75.8558C123.859 59.7207 133.097 38.8726 151.849 38.8726C158.639 38.8726 163.3 41.5264 164.812 44.4137L170.176 19.086H189.162L189.183 19.0648ZM143.633 75.1339C143.633 80.8236 145.655 83.5411 149.614 83.5411C157.106 83.5411 160.235 71.0577 161.342 64.4339C162.662 56.982 162.257 52.3114 156.106 52.3114C147.656 52.3114 143.633 67.7883 143.633 75.1127V75.1339Z" fill="black"/>
<path d="M244.142 61.7376C244.142 75.1764 237.416 96.8737 211.661 96.8737C194.292 96.8737 187.544 87.0866 187.544 73.9026C187.544 59.4023 195.995 38.8302 219.855 38.8302C237.352 38.8302 244.142 49.3816 244.142 61.7164V61.7376ZM207.063 75.4099C207.063 81.0784 208.808 83.8171 213.108 83.8171C221.58 83.8171 224.964 66.1748 224.964 59.8694C224.964 54.4981 223.219 51.9929 218.749 51.9929C210.49 51.9929 207.063 68.3615 207.063 75.4099Z" fill="black"/>
<path d="M301.016 76.6837C298.015 87.4687 290.012 96.81 272.409 96.81C257.105 96.81 250.038 88.3816 250.038 74.8367C250.038 59.5297 258.744 38.8302 281.455 38.8302C298.675 38.8302 304.911 49.8274 303.783 60.4426H285.457C285.967 55.7295 285.478 51.6108 280.667 51.6108C272.494 51.6108 269.301 69.4017 269.301 76.3016C269.301 82.1187 271.366 84.1356 274.644 84.1356C279.241 84.1356 281.051 80.951 282.711 76.6625H300.995L301.016 76.6837Z" fill="black"/>
<path d="M323.791 77.9575C323.962 82.5857 326.644 84.6451 330.368 84.6451C334.093 84.6451 336.073 83.3076 336.073 80.1867C336.073 77.3419 333.583 75.9407 327.963 73.7752C316.703 69.5079 311.382 65.092 311.382 56.791C311.382 47.1312 318.406 38.8514 334.732 38.8514C351.058 38.8514 357.826 48.0866 357.507 56.5999H340.309C340.138 53.0757 338.542 50.613 334.285 50.613C331.624 50.613 329.389 51.6532 329.389 54.5406C329.389 56.8547 331.433 57.81 337.435 60.1666C349.121 64.7099 354.804 69.0621 354.804 78C354.804 86.938 348.525 96.8313 329.624 96.8313C313.085 96.8313 305.763 88.5727 306.082 77.9788H323.77L323.791 77.9575Z" fill="black"/>
<path d="M327.367 28.0452C289.458 51.7806 244.568 60.8884 200.379 63.8819C171.687 66.2384 142.994 64.816 114.281 64.9646L126.754 40.0191H107.363C103.617 48.2989 99.8492 57.534 96.8054 65.3043C95.0174 65.368 93.2082 65.4317 91.4202 65.5166C91.2925 58.5955 91.0158 49.9761 90.7391 40.0191H71.3908L74.3494 66.8117C56.6614 69.2531 41.5275 76.4077 43.3794 97.914C44.3372 108.529 52.2766 114.198 61.4718 116.172V116.278C61.8337 116.342 62.3232 116.406 62.8128 116.448C66.0056 117 69.3048 117.106 72.5189 116.851C85.4177 116.554 90.2282 113.179 99.317 94.8993L108.64 76.2379C123.029 75.6859 137.481 75.6859 151.892 75.1127C216.812 73.1595 286.5 64.9434 339.436 23.9902C352.356 14.0544 366.234 0.127389 366 6.95238e-06C365.766 -0.127375 344.353 16.9418 327.367 28.0452ZM72.2847 101.969C70.7735 102.16 69.1132 102.33 67.4317 102.33C66.4526 102.287 65.3458 102.203 64.4305 102.054V102.118C61.8975 101.778 59.5774 100.929 58.0449 99.0817C56.6188 97.5318 56.6401 92.5215 57.4064 89.4644C58.9176 82.6919 68.4108 80.5476 75.6904 79.2101L77.5848 96.4703C76.3289 99.2515 75.0305 101.162 72.2847 101.969ZM91.7608 78.3821H91.3989C91.3989 78.0425 91.4202 77.6603 91.4415 77.2782C91.6969 77.257 91.9523 77.2357 92.2077 77.2145C92.0587 77.6179 91.9098 78 91.782 78.3609L91.7608 78.3821Z" fill="#31A392"/>
<path d="M350.398 9.17148C356.23 5.09527 359.912 2.1018 361.573 0.700603C361.871 0.44584 361.637 4.23172e-06 361.253 0.063695L313.085 9.59608C312.723 9.65978 312.68 10.1905 313.042 10.2967L335.541 17.3451C335.541 17.3451 335.69 17.3664 335.775 17.3451C336.648 17.0054 342.735 14.5003 350.377 9.17148H350.398Z" fill="#31A392"/>
<path d="M351.696 29.871C351.93 30.3168 352.59 30.2744 352.782 29.8073L363.148 4.64943C363.148 4.64943 359.146 9.78715 355.23 13.9907C351.803 17.6636 348.567 21.018 347.822 21.8035C347.716 21.9096 347.695 22.0582 347.759 22.2069C348.248 23.2471 350.589 27.748 351.696 29.871Z" fill="#31A392"/>
<path d="M98.1676 97.0011L126.754 40.0191H107.363C101.062 53.9461 94.6981 70.6331 91.782 78.3821H91.4202C91.7182 71.1639 91.2499 57.7039 90.739 40.0191H71.3907L79.0322 115.747L98.2102 97.0011H98.1676Z" fill="url(#paint0_linear_1337_31267)"/>
</g>
<defs>
<linearGradient id="paint0_linear_1337_31267" x1="110.534" y1="89.1034" x2="103.853" y2="79.279" gradientUnits="userSpaceOnUse">
<stop offset="0.35" stop-color="#31A392"/>
<stop offset="0.53" stop-color="#30A08F"/>
<stop offset="0.63" stop-color="#2F9888"/>
<stop offset="0.72" stop-color="#2E8A7C"/>
<stop offset="0.8" stop-color="#2C766B"/>
<stop offset="0.87" stop-color="#295C54"/>
<stop offset="0.93" stop-color="#263C39"/>
<stop offset="0.98" stop-color="#231F20"/>
</linearGradient>
<clipPath id="clip0_1337_31267">
<rect width="366" height="117" fill="white"/>
</clipPath>
</defs>
</svg>
